<?xml version="1.0" encoding="iso-8859-1"?>
<!-- Uploaded to: SVG Repo, www.svgrepo.com, Generator: SVG Repo Mixer Tools -->
<svg fill="#000000" height="800px" width="800px" version="1.1" id="Layer_1" xmlns="http://www.w3.org/2000/svg" xmlns:xlink="http://www.w3.org/1999/xlink" 
	 viewBox="0 0 512 512" xml:space="preserve">
<g>
	<g>
		<path d="M467.862,0H44.138C19.8,0,0,19.8,0,44.138v423.724C0,492.2,19.8,512,44.138,512h423.724C492.2,512,512,492.2,512,467.862
			V44.138C512,19.8,492.2,0,467.862,0z M379.586,467.862H66.207c-12.173,0-22.069-9.905-22.069-22.069V176.552
			c0-4.873,3.946-8.828,8.828-8.828s8.828,3.955,8.828,8.828v269.241c0,2.436,1.986,4.414,4.414,4.414h313.379
			c4.882,0,8.828,3.955,8.828,8.828S384.468,467.862,379.586,467.862z M44.138,141.241c0-4.873,3.955-8.828,8.828-8.828
			s8.828,3.955,8.828,8.828c0,4.873-3.955,8.828-8.828,8.828S44.138,146.114,44.138,141.241z M150.069,317.793
			c24.338,0,44.138,19.8,44.138,44.138s-19.8,44.138-44.138,44.138s-44.138-19.8-44.138-44.138S125.731,317.793,150.069,317.793z
			 M105.931,150.069c0-24.338,19.8-44.138,44.138-44.138s44.138,19.8,44.138,44.138s-19.8,44.138-44.138,44.138
			S105.931,174.407,105.931,150.069z M361.931,406.069c-24.338,0-44.138-19.8-44.138-44.138s19.8-44.138,44.138-44.138
			s44.138,19.8,44.138,44.138S386.269,406.069,361.931,406.069z M361.931,194.207c-24.338,0-44.138-19.8-44.138-44.138
			s19.8-44.138,44.138-44.138s44.138,19.8,44.138,44.138S386.269,194.207,361.931,194.207z M467.862,445.793
			c0,12.164-9.896,22.069-22.069,22.069h-30.888c-4.882,0-8.828-3.955-8.828-8.828s3.946-8.828,8.828-8.828h30.888
			c2.428,0,4.414-1.977,4.414-4.414V66.207c0-2.436-1.986-4.414-4.414-4.414H66.207c-2.428,0-4.414,1.977-4.414,4.414v39.724
			c0,4.882-3.946,8.828-8.828,8.828s-8.828-3.946-8.828-8.828V66.207c0-12.164,9.896-22.069,22.069-22.069h379.586
			c12.173,0,22.069,9.905,22.069,22.069V445.793z"/>
	</g>
</g>
</svg>