<?xml version="1.0" encoding="iso-8859-1"?>
<!-- Uploaded to: SVG Repo, www.svgrepo.com, Generator: SVG Repo Mixer Tools -->
<svg fill="#000000" height="800px" width="800px" version="1.1" id="Layer_1" xmlns="http://www.w3.org/2000/svg" xmlns:xlink="http://www.w3.org/1999/xlink" 
	 viewBox="0 0 512 512" xml:space="preserve">
<g>
	<g>
    <path d="m467.86,0l-423.72,0c-24.34,0 -44.14,19.8 -44.14,44.14l0,423.72c0,24.34 19.8,44.14 44.14,44.14l423.72,0c24.34,0 44.14,-19.8 44.14,-44.14l0,-423.72c0,-24.34 -19.8,-44.14 -44.14,-44.14zm-88.27,467.86l-313.38,0c-12.18,0 -22.07,-9.9 -22.07,-22.07l0,-269.24c0,-4.87 3.94,-8.83 8.83,-8.83s8.82,3.96 8.82,8.83l0,269.24c0,2.44 1.99,4.42 4.42,4.42l313.38,0c4.88,0 8.82,3.95 8.82,8.82s-3.94,8.83 -8.82,8.83zm-335.45,-326.62c0,-4.87 3.95,-8.83 8.83,-8.83s8.82,3.96 8.82,8.83c0,4.87 -3.95,8.83 -8.82,8.83s-8.83,-3.96 -8.83,-8.83zm61.79,8.83c0,-24.34 19.8,-44.14 44.14,-44.14s44.14,19.8 44.14,44.14s-19.8,44.14 -44.14,44.14s-44.14,-19.8 -44.14,-44.14zm105.93,105.93c0,-24.34 19.8,-44.14 44.14,-44.14s44.14,19.8 44.14,44.14s-19.8,44.14 -44.14,44.14s-44.14,-19.8 -44.14,-44.14zm150.07,150.07c-24.34,0 -44.14,-19.8 -44.14,-44.14s19.8,-44.14 44.14,-44.14s44.14,19.8 44.14,44.14s-19.8,44.14 -44.14,44.14zm105.93,39.72c0,12.17 -9.89,22.07 -22.07,22.07l-30.88,0c-4.89,0 -8.83,-3.95 -8.83,-8.83s3.94,-8.82 8.83,-8.82l30.88,0c2.43,0 4.42,-1.98 4.42,-4.42l0,-379.58c0,-2.44 -1.99,-4.42 -4.42,-4.42l-379.58,0c-2.43,0 -4.42,1.98 -4.42,4.42l0,39.72c0,4.88 -3.94,8.83 -8.83,8.83s-8.82,-3.95 -8.82,-8.83l0,-39.72c0,-12.17 9.89,-22.07 22.07,-22.07l379.58,0c12.18,0 22.07,9.9 22.07,22.07l0,379.58z" id="svg_3"/>
 </g>
</g>
</svg>